<mxfile host="65bd71144e">
    <diagram id="75FGouVWA-5HJnq9hStm" name="Page-1">
        <mxGraphModel dx="1244" dy="395" grid="1" gridSize="10" guides="1" tooltips="1" connect="1" arrows="1" fold="1" page="1" pageScale="1" pageWidth="1169" pageHeight="827" math="0" shadow="0">
            <root>
                <mxCell id="0"/>
                <mxCell id="1" parent="0"/>
                <mxCell id="15" value="" style="shape=image;verticalLabelPosition=bottom;labelBackgroundColor=default;verticalAlign=top;aspect=fixed;imageAspect=0;image=data:image/png,iVBORw0KGgoAAAANSUhEUgAACNUAAAA9CAYAAACAlM0pAAAAAXNSR0IArs4c6QAAAARnQU1BAACxjwv8YQUAAAAJcEhZcwAADsMAAA7DAcdvqGQAABgpSURBVHhe7d3RT1Rn/sfxT/cvYG7ERVFK6e8GBhFKIopuXAjbuEkhkoI1RKW0XDXFKLEY46ZZY8QGTDG9WSpijcGODQRNfqYlUFKFsokVB0aTza8sRQdZhxvmP+jvAoTnHFAGkHWeM+9XMonPc8a5eubM4Tyf8/2+8Y9//ON3AQAAAAAAAAAAAOus8f863VOA5zX8T7l7CgBgiTei0ejvgUBA/op89zEAAAAAFij4l3sGAAAAgDUyht0zAAAAAOLEH9wTAAAAAAAAAAAAAAAAQKIjVAMAAAAAAAAAAAAAAAC4EKoBAAAAAAAAAAAAAAAAXAjVAAAAAAAAAAAAAAAAAC6EagAAAAAAAAAAAAAAAAAXQjUAAAAAAAAAAAAAAACAC6EaAAAAAAAAAAAAAAAAwIVQDQAAAAAAAAAAAAAAAOBCqAYAAAAAAAAAAAAAAABwIVQDAAAAAAAAAAAAAAAAuBCqAQAAAAAAAAAAAAAAAFwI1QAAAAAAAAAAAAAAAAAuhGoAAAAAAAAAAAAAAAAAF0I1AAAAAAAAAAAAAAAAgAuhGgAAAAAAAAAAAAAAAMCFUA0AAAAAAAAAAAAAAADg8kY0Gv09EAjIX5HvPgaszvSAAj2X1DI8OjvOvagbVYXa7H7fSq3X5wJr9UrXZliTobvq+KFHY1OjemgcyUrJVkbORzqYXajNG4wDgM2mBxTo+Ul9z37Vw6m575AkKVtZKW+r6C+HVOlPNeYBy02HNTR6Ve1B95qfO89vLNHukoMqWOF5vuBf7hngdQgrWPu+7ofc8ytU1qyaz3a5ZwHLhBUdGtCDO72a+fcjzZjfC3+mfMpQenWV0gpSlWQcAqwwdE5dx25qxj2/DN/R77S/kmt7eE80UKPOLx8ZM5nyHf18Zes9Y9g9A8SBiKIjIT24/Ytmno45z/ubMpSe91dt3+ZXUrJ5ALDZ3JoP/qKZe84179uUIR9rHl4XCSn4/f/q/r2x2XF+ncoP+/mbFR7z4uubl53rCdXglZoMndXf2zsdQQCl1OtG/cFVBgxmrdfnAmv1StfmdIdqG5ucn7WkbJXtO6MTxSu4OQPEnbAC104vhNFeJqVczYdOrThkAMSXsIaundbxWNa8pKzcev2tKvbfEkI1iA+D6i84rnH39Er561Te+gE3bWCtaOCcfvwyxsABITJYaHGAIEasd3hR+Lq6KloWn/NXut4J1SCuRDTxTbv6nm+qLsOXX6c/s+kKq618ze8/7HdPA1aLjlzVj1/fcQUoD6j8ZDHnd3hHpFddZ75dfO2+SIbS36vW3pKFZA3tn/BqTA/oi6ZcVbjDBWu1Xp8LrNWrXpuhs9oZU6BGkkbVfbtUtdcG3AcAO0x3qPZY6RKBmmxlpWQryzWrqU4dbzyrIfc8YI2wAk2lSwRq5tZ8SrZrXno43KSKpg5Nug8AcW2LfK/ivuJbW7hhA0uFFazdoc6lAjX+TPn8ma/mOwJYype2xT0FWC6s4JklAjWA1SIKnjsVc7hAkmbutajzm7WWqwRel5D6P1n5mm9jzcMrIiH1n/tIne5ADeA1I1fVFlOgRpLGNH7rlLqMcz2VarBGYQ31XlX77ZcEC1ZVtWO9PhdYq3VYm0tUqMnad1F/M9s8TYc11LO4wkFZ9bBOcGMeVpkNF7RMLcxk5V7U3xa1TFuiqsdKv1tAnJjsPaKK28613HxocYunyVCHOn5oUrf5/dh3U60xVCajUg2sNnRObcduzg9pDwJbTZzfob5uY8JfqrzqKuUULLGew4MKdlzWeNoK24MAccBRqWal1TgAL3Fcw2TK5zfa/a30u0GlGsSNkPo/aZmvPunLP6Dcd/1KS154UjsaCenB5RaNP52fkiSlf3xJe7c554C456hakCFf/juL1/xIrx7c/pY1D4+JaKLnBw3fekmYhko18IolKtT43qvTn802T5GIJr5fXLXs+bmeSjVYg4HZp64d4YJslVVfVF2K440rtF6fC6zVeqzNsAJXnYGasuphtRYbgRpJ2pCqgqor+rm63JiUun+gigHsMtl72hmo2XdTrYsCNZI0u+abc42pqSZ18BAIrDOgDleg5kb94kCNJG32H9SJ+osqM+YeBu9ynofHhRVsXwjUSKXKJWAAC0UDNa5ATZ3KW08uHaiRpNRdyvmsjUANAFhrUP1GKDj9wudKdxwHbJah9PfqVP7VJe0/XOwIF0hSUrJfe0+eVd4mx7TGg9y0gYWSk+Wba+lU/lXD0mt+W/HSa/52r6LOKcASodmqZI5ATYbSP65btM4B+0UUvOwM1KR/fEn7S4xAjWZ/D9ION6jm4z3G5MK5nlANVi/0k7Exmq2yfRd148IVnfBvdb5vpdbrc4G1Wo+1OX1Xfa6AwUsrz/hPETKAxcIaDJrVlspVvUwFjoIqZ8Cge4S2Z7DM9BOZ2fayvyxXbalQux3n+d8UNoaA54QHNG5cy/iOVinNPA5YYVAPnlft0PNAzQc8zQcAHhYNXJ6v5KGyZu0tcB4H7OXX3q8atLfEv8y1TLJyPjwgnzk1FSFgAAv5tferS9p/OIY1v8+50aqnU6x52Gnkge7PV156HqRs0N5tSzwFCNguEnJUGvO9d/blVca2HVKR2eDp6bd6MEKoBq9AVm69mhuu6ETxUpUGVm+9PhdYq1e5Nod6zCo12SrKfnnAQJIKSuqVZYwJGcAai0Jkh7T8fUdXwGD4Jw0ZQyDuRX57cbvAF0jdmO2eAjxroqPFeFIkU+k7l78WAuKNY2NVUno1gRoA8LTwdf04H6bMVN7BFbR5ArxkrsLHPAIG8Lpt211VyaYUjTgmAKv48g+o6HQsQUrAXhPfm1VqMpS+zVmNbClp7zqDw+PBEKEarIH/lG5cGFZr1dItDFZtvT4XWKtXvjbDevLMGKaUaFcsn7thizLM8bMntAaBlTKSY9s4Ldhmtj37VU+mjSHgQeFnZruoNxXbNwWwUPi6hs12OWUfKocFD+uENdHnrFKzffnUMADAWmEFzyyEgn1HP+f6BXhuUwqbsvC4DfLRGgdesO2Q0eLPfRDwkoiixoPe2vRObGveHRyeihCqwdqstUrHi6zX5wJr9WrX5mM9Nqt25OyO8fO3amuKMaQ1CGyxioodkqTkN43qTKN6zBMgsIn/T84WZj90LBOEHNDd4YVR7L8NgH2iP/c6qtTwlDes5G5hVlTIZhIAeNnQNd2fP++XKreSRA0SWCRiXM9LSknmOggeN60Zo4WIlKKkWDZngTjE+RqJwXne9uXFWpXJFaJ8OkWoBgBem+knGjOGsVbtkFK1ZaM5pnIHLOEIx0hjkdXFwVb7/4DXo1AH9xntnKaaVHFt4AXBmrACTZ9qoXBHuaqLY/1tAGwzqAfzbRMk+YuVxnKHjSYnaGEGAAljUP3Hbs6P0i+cVJrjOJBYoiO/OEI1vj/GUoIbsJg7SEZ1JgCIb67zti851iRkspLM4gYiVAMAr89qq3ZISt1obNAClnr47LF7amnulmeAZTYXn1GdeRE+/Kkqms4qEDICYtMD+qKpVC3zFcyyVddwSnQQgVdFA5c1bozTqz/gZiSsFH3iiMkriUwNEs2/L6urtmbRq//8dQWHwoq63w9YzHH9Qrs/JLpIr368ZV4H7VFuSawbVYClnk1RnQkAbOI+b69A0h+du1KEagDgNZmM/GqMsrV11X930g4HltiwW0WOYMElBWKpsjT9xDGMOYwDxI1UVdbfdAZrpjrV0l6q2qazClw7op2Nn6r7eaAmpVzNDVdUyUN+8KywJvqMKjUq1ZtsSsFS0QlzLT8XVnTouvpra9RVsENt5qu2Rv2B65qg8B68IvRIM0u8xrtbdP/Y++os2KGu84OEa2C/8HX9OF9lL1N5pwkEI1FFNNFzVV1nvjU2qTKUd/oQlZvgcREFb99xzKTn+B1jAEB8iUbmn2CVlCGfowvISowRqgEAG21Ofts9BVggVbtyzCpLo2ppPKIvzGodhsnpgbmwQZPRDgewVaoq64d1Y1+5ow3aw6lOtQyPzo2yVbbvom7Un1IBgRp42dA13Q8tDH1Hq7gBD2/wS9HzNWoreF+dx1o0Hnq0+Imo0CONf9mivgqCBkgcM93H1VlQo+DSl/2AFSY6WubP6b6jnyuHymTwvIiC5xrVZb4++Uhtn5xS3607C9+H/AMqOt2gnFU/LAhYYuQH3X9qjDcd0PZtxhgA4ClJyY7+T4RqAADAf8+iNjgaVXd7qXYey9XOpiOqbTqi2qZc7TyWq4rGT42wAeANm4sPqTr3RS38RtUd/EnhaXac4GVhBdtvGuNS5VayKwWPCN3U/W5X5Rp/pnz+TPmWeIh1pvu4Os8PuqeBuJdU2abyG9/Nvob+qRrH6zuV32hWXlmmfI7/9Uj3K85pwjEHWGLonPrmn/Tg2gUJIhLS+NMxzZgvxxsy5Mvfo/Qcv5II1MDzQur/2qxSk6G8D4upWAYACYRQDQAA+C+aa4OzVKhgalQPp0b10KzIJykr11nZI2vjVmME2GMydFa1x0p13AiLZaVkO9a3pjp1vLFUtdcGNGnOA14RHtC4UaVGZXuoUgPP8ZXVqejGd7MBg9Y27W9t0/7W2cBB+YVSZ9Cg+7j6h8wJwA5JqamzL/cBpSopdZdyPmvT/hvNSncEym5qOEB4GLYZVP+xhUBw+oWTXLsgMSQnu8KRbmOauXdH978+pc5PGtXfQ296eNfENy0aN8a+96qpzgQACYZQDQDEhVE9XsHfnpORX41RtrZyEQ+rpKqy6op+brioutxsZTmr6EnKVlZKuer2XdSNC8NqrfqTMtxvAawSVqApVxXtnXo4N5OVW6/mhmG11l9R64Wbana3hRr+VBVNZ8U+K7zGbJ0gZSrv4C7HccBq/lIVDf1T+z/7QGmpS1cxSCo4qf0XSh1z43eoVgOPSt2lvafrHJuyM19eo1oNrBINXF7YSPXXaXuB8zjgXX7t/eqSatyv02dV/vEBpW8y3zum8Vun1PWNmZ4HvCHa06i+e8ZEfp32l3AzHgDsM6aZZ+65F4tGzKe/MwjVAMDrsjn5bfcUkFg2FKqy6opa64f18wXzdUWt9adUWVyozZI0/URjxn/LSF56kwqIT2EFmkrVMn8Nnq2y6ptqrTqogg3P51JVUHxKrQ0Xne3Rpjp1vKmDijXwjvB1Dc+3TpDkL1Yap3R4Saz7SAVVyjOrd3TfIWQA70otdFWrGVOUYjWwRfi6fvzyeVu/TOWd/mCJ6kxAgklOVtK2Yu09eUnlH+9xBifvtah/xJgALBftaVTnLeOu5KYDKj+8RF9XAEBcSkpe9ET3qhGqAYA4MRaJ/c5i+NlC6xDpbW2Z35gFPCjy23x1DyozwTaTvaeNQI1UVn1FJ/wvSBFsKFRl/bCac425qSb9vTf23wcgnjmr1Ejp1WxMIVGlKukt9xzgValKK8o0xo80Q2IYlnBcu5R9qJwXXMYDiSpp2yH9+T1nbeHx272KOmYAO0VHrjoDNdqjopPF/A0LABabicTeMiT6H/M3IIVQDQC8NslvOlp9rFrKm+K+DrxsaKRzYZBSol2EyGCNAXXcNkKQuRd1IoYHmgqqLqrMGD8M3qVaDTxgUL85qtTQPgHekJRmhgVi5/x/VO4AgPjjunbpPq62gh0veb2v+2bFMtf7++nrCo9KKvmr0s2Jp79oIvb9KiA+jVxV59d3jIk9Kjp9SGnGDADAAhtTHFX1Vm0ToRoAeH02bJH5LEfsm6YDujtsDDdumW2RA3gS6x0Wc7Uuy9q41Ri9TKF2O6rV/Cb2WmG7aOCyxo2xr6iQJ/zgCUlbzCv62MMx0Ynn7UQkKUNJpOThYc71nikfF/RIQDNPYvyBAKyzQb5N7jnAYiNX1bVUoIbK2QBgn+RkZ6vK+6EYK+qF9Ns9Y5iSTKgGAF6frdpqtvOLddM09JPMh6Vi36QF7DPZe8lY79mqKyl0HAfimqN1mZSRzI4pEtWgHnxpbqiWKreS7wM8YnOacYPmkcZ/juWKPqzov42hP42QGTzMtd4JkcEaW+SLocpkrHxbWPjwqmnNPHXPAZaK9Krr6ztG2+IM5RGoAQCLucK/T6diC9WMPHA+HPjHDYRqAOD1SdWunGxj3Kn23uVuwocV+MFohaNyVRdzYwYeNd2hv5utc2j9BNu42vyNRZY7xz8X1pNnxpA2f7Dd0B3nH6JHqyibDe9ILVS6sek60zew/A2aoWvOFiFvbSFUA+9yr/eyPfwGwBKpymn9p2qGYn19pzwzhFPW7Di+l7aX8CrXppM2vUMAAXaK9KrrzLeuQE2DcljPAGCxZKXlmRWG72i4Z7k+lREFbzsrluWWUKkGAF6rzcUfqcwYP7x9WoFpY8Jlsve0WqaMidw/ifsy8KLJUIdqG5uMKh/Zqjt0kNZPsIu7zd8y5/h5oauOc31Wzm7WPiwWVrD9pjHOVPpOYmLwklSlFWUuDEMt+jHwshDloPqPOb8TeQd3GWMgnoUVrN2hrvODy4fHJCl8XV2sdwCwSETBcx+p65teTSy33yRJkZD6HW1yJF+en7Aw7EOgBgA8K6nkr0o3xjO32hV8yXVOtKdd980qfPnblSYRqgGA16tQB/eZ1WpG1dJ4RF+Ewpo0ZjU9oMC1I6owq3aoXM1VtMKBXSZ7j2jnsSOqvdahIfc6lzT5fK23m4EaKWvfGVVSpQbWifEcPy+sod4j2tluViTLVlE2AQRYbFGFgg+Vw5KGxyRVfui8QfPl++o6f10TjmxNWNGhc+oqOO58mpvvBCw0031cnQU75tZ52BWwCSsaHlTwfI3aKlqMzSnJd/Rz1jsAWGDm3rfqO/OR2s5dVbAnpKh74ykS0UTPVXWdaXFe18w9yQ3YJaR+AjUA4GF+bX/PfPR1TPfPNKp/JOL8WzYSUvCbRnXeGjMm96jo8Gw5yjei0ejvgUBA/op84w1ALAb0xbFP1e2ejlFZ9bBOLNmbeL0+F1ir9VqbYQWaSp0VaJaVrbqGK4QMYJ3JXnc4bHlZ+26qlTZnsNbLzvHZykqZ++fUqCNINitbZdVXXvDb4VTwL/cMEB8mzu9Qn3HxlH6B9gfwqKFzanNU5IhBWbPKP9vF09ywSFjB2vedYckY+cqatf8zqtTAy1zfj7Jm1axkzWcMu2eA12Lim4/Ud889GwuCCLBTtMe9gbpSrH3YKKT+T9zByNilf3xJe7e5Z4F4FlHw3ClnBZplOc/vVKrB6k0/0VouNcYiLyiJvV6fC6zVuq3NVFXW31RzrlnN4CVSytVMoAaW2pz8tnvqxVLKVdcwTKAGlnvZOX5UD6fmXu5Dc+f6WAI1QNwKX9ewmUb212k7gRp4VcFJlV8olc89v6RMpR/9TjUEamCdVOVU18m3kusTf6bSL3xHoAYALJH2bp3y8s2nuZfnyz+gIkIFsFT0P2u54y9JY5p55p4D4lwk4qgouVIzEXcJMyDeJSvn5FkVxXqNs2nPomsbKtVg9aY7VNvobM+xEi+s2rFenwus1X9jbU4PKNDzk/qedeqho6pBtrJyS1RdslsFGwgYwHLTYQ2NXlV78Fc9nHJWrclKyVbGxhLtLjmoAoJj8Jywhnrv6m6wR2NLBGnWsv6pVIN4FB06p875yh2ZSr/QRpUaJICwJgLXNNw3ppnQI2M+Uz5/htKL9iitkjANPCA8qODPdzS+aK1LPn+m9Faxcg8WKi2Vv1+RKMKaOP/+fIU+39Fm7a9cQZiMSjWIOxFFR0J6EPxFM1NjmnE82Z0h36YU+fK2a/s2v5II08Bi0ZGr6vz6jnt6RajaAetEetXlaHu2Mqx5WC0SUvD7BxqfurP4+ib/HeW+61da8uKLG0I1AAAAgOUI1QAAAAAWI1QDAAAAxC3aPwEAAAAAAAAAAAAAAAAuhGoAAAAAAAAAAAAAAAAAF0I1AAAAAAAAAAAAAAAAgAuhGgAAAAAAAAAAAAAAAMCFUA0AAAAAAAAAAAAAAADgQqgGAAAAAAAAAAAAAAAAcCFUAwAAAAAAAAAAAAAAALgQqgEAAAAAAAAAAAAAAABcCNUAAAAAAAAAAAAAAAAALoRqAAAAAAAAAAAAAAAAABdCNQAAAAAAAAAAAAAAAIALoRoAAAAAAAAAAAAAAADAhVANAAAAAAAAAAAAAAAA4PKHQCDgngMAAAAAAAAAAAAAAAAS2hvRaPT3QCCg2tpa9zHAsx4/fqytW7e6pwHPYs0j0bDmkWhY80g0rHkkGtY8Eg1rHomGNY9Ew5pHomHNI9Gw5uE1/w8WTGVU908fNQAAAABJRU5ErkJggg==;" vertex="1" parent="1">
                    <mxGeometry x="80" y="40" width="941" height="25.39" as="geometry"/>
                </mxCell>
                <mxCell id="16" value="" style="shape=image;verticalLabelPosition=bottom;labelBackgroundColor=default;verticalAlign=top;aspect=fixed;imageAspect=0;image=data:image/png,iVBORw0KGgoAAAANSUhEUgAAAvMAAACxCAYAAABJCjKZAAAAAXNSR0IArs4c6QAAAARnQU1BAACxjwv8YQUAAAAJcEhZcwAADsMAAA7DAcdvqGQAABdZSURBVHhe7d3fT9RX/sfxl9+/gLmRLoplWfYKBhVrUqx142Lcxk0KkVT9GmOlVK6aYpS0GuKmWWPUBkw1vVmq1RpDiw0Em3xNa7CmVqVJWxwcvfkupdShfB32YuY/8HsB6jmHgfkMv/yc8flIuPicD8zVmcPrcz7vc86Sf/3rX48EAACQB47/b7fbBOS1JbdTA4R5AAAAwEP/5TYAAAAA8ANhHgAAAPAUYR4AAADwFGEeAAAA8BRhHgAAAPAUYR4AAADwFGEeAAAA8BRhHgAAAPAUYR4AAADwFGEeAAAA8BRhHgAAAPAUYR4AAADwFGEeAAAA8BRhHgAAAPAUYR4AAADwFGEeAAAA8NSS26mBR24jMCvjN9V19YxODdyduK46rUu71mu5+3u5WqjPBeZqXvtmQqPx79X5zVUNjd3VPeNORVGlyla9rZ2V67V8qXED8Nn4TXVd/U7XHv5b98Ymv0OSpEpVFP1ZNX/bre3RYqMd8Nx4Qv13L+hczO3zk+P8C5v16uadqs5xnCfMY16Mxo/qn+e6rQCiohZdatk5y2AzYaE+F5iree2b451qOt5mf1ZGlarbckTvbSLgwGcJdV08/PQheCZF9Wrf3ZpzuAHCJaH+i4d1IEifl1RR1aJ/7Ar+v4QyG8zN+E192FalbW6omauF+lxgrua7b8aPal2gIC9Jd9V7pVZNF2+6NwA/jHeqaX9thiBfqYqiSlU4rRrr1oHjR9XvtgPeSKirrTZDkJ/s80WVTrt0b6BN29o6NeremAYz85ilhPr7LujclRkCzaxmKRfqc4G5WoC+mWFGvmLLaf3DLKcZT6j/6tQZnbqGAb0XtZqAkJsINafGnrZUVJ3WP6aUpmWYxcz1uwWExGjfHm27Yvfl9t1TS2lG453q/KZNveb3Y8tldQR4E8vMPGbh5sRTphVqKlXXcFrNRdYv5mihPheYq4Xomwl1XbCDfF3DgDo2OXXxS4tVveu8bjfUG41S7zfBZ22AMBjtO2wH+S2X1TElyEvSRJ9vrzKaxtrUGTeuAS/cVKcT5C+1TA3ykrQ8ulPvtZxWndF2L/Z9oHGeMI/cxb8zBuRK1W05rUsnz+u96Iv27+VqoT4XmKuF6Jvj3+uaE2xmnGmPthJu4LGEbsXMt0v1asgy41i9yw42vYOUl8Ez4w80ZFzW/S3b26X1etUa539VwricDmEes1ZR1aL2g+f13qZMMyuzt1CfC8zVfPbN/qvmrHylaipnDjaSVL25xaopJtzAG1MeXner2ryfkRNsBr6jdh5+Sf46fVnmNIpfmFpDnw1hHrmLturSyQF17Mr8qmjWFupzgbma976Z0IOHxmXRZr0S5HOXrlCZef3wQaBXsEDYlBVmf3iVpOqVZnnZv/Vg3LgE8lDioVmW80cF+aYQ5jErc52VnM5CfS4wV/PbN3/Tb+Ys5apXA37+i3rRrNEP+AoWeOZmMUMpSSr8o/E26q5+S1p3gXCL/sUuFcu61ummvh94ehX0fwNhHgAWm1NHGXSWUirWihfMa2Yq4QkrlEtDydk9hs7274BnY712bjHKZsbatO3izWkCfUJdbe+q98l19nUljxHmAWCxzXaWcpb1lEDY3Hv4m9uUmVtaBnhm+aYj9q5nA+9qW9tRdcWNB9Pxm/rQ2ra1Us0HWwOsK5lAmAeARTaa/LdxVakXC43LnFB2AE8sfVU1VqA5o64gb5XGH1iXgR8CgNAo1vaWy3agH+vWqXO1amo7qq6Le7Tu+LtP95cvqlf7wfPaHmQd1STCPAB4ZHnhn90mwAPFemWV+Vbprk4d36MPzdlJw+j4zcmQ02aUHQC+Ktb2lgFd2lJvlZvdG+s2TkOe3Pa4pTXnjRYI8wAAYMFNKTfQXfWeq9W6/VVa17ZHTW171NRWpXX7q7Tt+LtGyAHyw/JNu9VQNV2p5F31xr5TYjzzA+5MCPMAAGARTJYbZAozY3d1b+yu7hm7PElSRZU9k1nxwhwOagOeodH4UTXtr9UB4yG1oqjS6t8a69aB47VqmnaRbGaEeQB4pnKre5+/envgWSjW9l3ndfvgaTVXVarCmqmXpEpVFNWrecvpybMd/sICWHguoa62Km071/1k44OJAwgH1NFyXh0nL6vdLb+ZXCQb9JA0wjwALDLq3vHcW7pe23edV0fLgG6fNH/Oq6OlVdsfn7I8621cgTBIqMvZpaau4bJzAGGxqje1quPg6SmLZA+0ZduXfgJhHgCesVz2zrZOB9SftSLHhVKAV6xtXHkTBb+M9h02grxU13Be70WneSBdul7bWwbUXmW0jbXpn33Z/z8Q5gFgsTkH6MxawKO+AV/1D3Y/vSjarFd4eIU3bqrzijH5UnVa70XN+5lV7zptnRp7L/Z91tl5wjwALDbnIJwgg/UE+6hvvbAi0FHfgJ/o7/CYUyIWfPH2er1qzc7/qmxz84R5AFh0L+pFqzYy+2AtSYp/Z+25HfyfA+Cf0b4zRn+vVPPm9dZ9INSck74Xcr0HYR4AFp17gE63zmWti0yo6xuj5ED1ati0cP8cgGdqvFP/NEsUKLGBb5xyyuBroxJ68NC4DFBOSZgHgGdg+aa37brIK4dnPN7eXUilqr+o2rgE8sVovFNNx9usha/Nu3dSYgO/uOWUWcb4J+IXrLG+YtWrWfs+YR4Anon12rkl8/H2Vv385LH228xZStWrfRclB/DLaN8erdu/R00XO9Xv9nNJo4/7+jkzyEsVW45oO7Py8E7AMf6JhPr79mjdOfMNbKVqKrPNy0tLbqcGHrmNwMxu6sP971q1u7moaxiYZkX3Qn0uMFcL1TfdPYiDqFTzwfOEG3hntM99KM2uYstldVBOBm/NNMYbh6aN3bUeYCdUTm5l6bZPxcw8cues0M7VtHVjC/W5wFwtWN+cON6+PdPx9pkU1audIA9P5XRYWlG9mg8OEOThuZnG+Lu6Nzb5496aHOuDBHkR5vEsLNSK7oX6XGCuZu6bxap+crx9febj7ata1H7wsm63tBqnBgKeibbq9sHJo+uLpoabiqJK1U0ec3+7pZWHVuSJyTH+5GW1b2lRXVFlxnNG3P6fy1hPmQ0AAADgKWbmAQAAAE8R5gEAAABPEeYBAAAATxHmAQAAAE8R5gEAAABPEeYBAAAATxHmAQAAAE8R5gEAAABPEeYBAAAATxHmAQAAAE8R5gEAAABPEeYBAAAATxHmAQAAAE8tedQ/8MhtBAAAABB+zMwDAAAAniLMAwAAAJ4izAMAAACeIswDAAAAniLMAwAAAJ4izAMAAACeIswDAAAAniLMAwAAAJ4izAMAAACeIswDAAAAniLMAwAAAJ4izAMAAACeIswDAAAAniLMAwAAAJ4izAMAAACeIswDAAAAniLMAwAAAJ5a8qh/4JHbCCyuhGJNb+jnuNueo7p2Nb7/itsKeCahdP9N3bnRp9Qv95UyvxfRckVUptKGXSqpLlaBcQvwQv8x9ey/rJTbnkVk35faur3YbQa8l+5qVPdH942WckX2fZBTf2dmHiHwwA4ss/XLA6XdNsAj6a5j6ql+Q937T2m41wnykhS/r1T8sn7e/4a6T9xybgLhl34wlHOQl6TUyAO3CfBf4nN9awV5Sbqfc38nzCMEVigSddtm4U8rmKmEpxKKNb2s7o8yzFhGyxWJls/PdwTwVKRkhdsEeC6h2JFTU8f8WaDMBv7qP6az+y8/ueQ1LHw1cuJlXes1GqK1WtOwS6uqM/TnxC3FOj/VcElur2GBMLBKCiiNxPPMyjDlikSNt7E5fjeYmYenEoqdexrkpVpVEWzgoXRXoxPkm1XfcShzkJek4le06v2zBHkA8NYtXTcmI0tPfqBS635uCPPwU+Kmho164si+XSox7wNeuKU7Zr1ktFn1Hf9NuRgA5LF016cafnxR166N1fb9XBHm4aWRTrPOrFyl65ilhH+sAV1SaQNBHgDymrXotVxrdgYvp5kOYR7+SXyuAbMsoe4trSLLwzsJjVyzZ+VXz3F2BgAQZvai18i+D+YlvxDm4Z307T5rVn4+nmqBReeWitWsZ1YeAPJZ/0XjTJ35W+tHmIdn3BrjTSqZn+8CsLhGRygVA4Dnhrvo9dC8rfUjzMMr1BgjX6QfDBlXZSogy+N588un6mlqnPJz/cTnivUnOAQQecXKL/NcVkmYh0ecGmPV6o/z+GUAFlN6xD31T5ISSvd/rutNjeqpfllnzZ+mRl3v+lwjCfdvAE/F7yuV4We499TEKcfVL6vnxC1CPfznLno9PL8TkYR5+MOqNWM7SuSRqJQ+0aiz1W+oe/8pDcfvTz0VMH5fwx+d0rVtBBw8P1K9B9Rd3agYD7HwmLkD33wtejVxAiw8kVCs6Q1r4UhN//zVmwGLbcqpr65ouSKSJONUQFOOJwQCYZFOTCbz4mJndjKhdOKBRjo/1XCv+0DLmA9PWSe9TtePnYyT4/jOzDz84Oz8oboNGb4MgN8idc2qufSlGvt/UGPHWW3tOKutHT+osf8H1Z+snQz3k3oP6Hq/2QD4oaC4eOLHvaFiFTw+4fhSu0qj5r3LGuhieh6+WbhFrybCPLzgHhLFdpTIK9Fa1fT/oK3v/7dKijO/fy2oPqStJ2uttuEbt6xrIG8Uv6KNh5utB9jURxc1YlwDYbeQi15NhHmEn3tIFNtRIt9kKqPJpHqX1pizlb03CDfIX8Xrndn5IaWZnIcvFnjRq4kwj9CzZ+XZjhLPs2IV/MltA/JVsUpqyo3r+0qNGpdAiFnZZYFPqifMI+Ru6VdrVn7hXlMBi6mgxAwpwdl/x0wlAISPk116D9hbDU/5MTf4mPr72dZHEeYRau4hURx5j3xRsKLMuAoeyu396TlsCvnN7u/liiw3LoHnROrBzP8gCPMIsVu686TeTJJqVbWd5II8sbzEWNx3X8O3Zx6sJySU/sW4jJbwcIs85vR3Hl7hjRWKWOs95iayYuaOzz7zCC9rb1Ypsu9LbSXMI284+wpHm1XfkWU9iPOdyHUvYsAr9Hc8N9hnHnkpodg5YxBXuUrXEeSRT5zFffFT+nbGfbTt/YrZohV+SSjWlMPpxYnP1UN/BwIhzCOc+i/ai0EWeCU48CwUbH9LpcZ16qM31HPic41YmT6hdP8x9VQfsNaP8J2Aj1K9B9Rd/fJkP084wT6hdOKWYicadXabvYtZZN8H9HdgGpTZIJTco+5LT/6gjexig3zklhIEUdeu+vdfmbkkBwgVp4wgB5G6dm3NoeQA8A9lNsg3Uw6JYjtK5LHqQ6o/WWuddDm9cpXu+1KNBHl4p1irGppzWxQYLVfpyS8J8kAWzMwjdNL9x9T9ZKayXKUnzzIrj+dAQiNdFzVwbUipuLMdX7RMpTUbVLKdEI88kLil2O0bGp7S16VItFz60yZV7VyvkmLqavC8SGjkxBtPKhIi+9q1dXvwh1jCPAAAAOApymwAAAAATxHmAQAAAE8R5gEAAABPEeYBAAAATxHmAQAAAE8R5gEAAABPEeYBAAAATxHmAQAAAE8R5gEAAABPEeYBAAAATxHmAQAAAE8R5gEAAABPEeYBAAAATy159J8zj9xGAAAAAOHHzDwAAADgKcI8AAAA4CnCPAAAAOApwjwAAADgKcI8AAAA4CnCPAAAAOApwjwAAADgKcI8AAAA4CnCPAAAAOApwjwAAADgKcI8AAAA4CnCPAAAAOApwjwAAADgKcI8AAAA4CnCPAAAAOApwjwAAADgKcI8AAAA4Kklj/5z5pHbCDxbSaUH47pz5Selfh9Syry1rEyla/6u1SujKig0bwA+m+zzsZ+U+tHu85FlZYrQ55HvknHFvv4f/fzj0MT12mbVvxlVgft7gNemzzdzGesJ8wiRpEY+O6drjwfzLCJrm/VXBnt4Lfc+v/XNqNsMeC09eEHffnLDmbjZofpDmxjfkT+Sfeo58oXdzzMqU+nrDdq4OXiiJ8wjJJKKHWvVz7+77VmsbVYj4QZeiuv6O6c07DZnQ59HvkjGdf3TUxrONO4T5pFPBi/o7Cc33NYZ5TJ5Q5hHSNjBJrJ2h6pei6qk8OmTaToZ150MA3/p3jPauNJuA0LPmqUpU2TtS1P7/GCf7lz5gj6PPJPUyNVvNPCVMxtvIswjX2SYkY+83qy/muU0yaRGvp76ljboWM8CWIRImUpfb1b9x2e09c1NVqiRpILCqDYeOqo1y6xmDcfidgPgg8JCRSZnX+o/Ppi5z6/clLnPX+lT2m4CPBFX7FirrllBvkyle5un9HPAf0nFPrWDfOneM9q62amLLyxUyZsH1bh3g9EYfKwnzCMkotr48UFt3JytBr5Qq97aoYjZNJYM1NmBcIlq48dntDXruo9CrdpiD/D6fYw+Dz8N3jHKKR9P4BzUxpVL7d8D8kEybr1Zjbx+dOaZ9pW7VbPWuP79C90ZNK6nQZiHfyZnNJ8g2CDfrVytUqthTOmk1QB4JbJ2h2oOB5nAAfw18rU5K1+m0pXZF7WWvGZPWAapPiDMw3/LivhngDy3VBFKEJAPVu42Sindm0A+SSo9ZlwueylYn3cnLANUHxDm4Z9k0l40VVRImEeeG1fKWgRblPM+xEBYMF7j+WCP25E1Qd9COZM3AaoPCPPwTnrwJ3tV+B+otUSecx9geRsFAOHmjNsRZ4OD6RWqoMi8zl5WSZiHX5J9+vYrc+umDarK4WAFwEsPx3gbBQA+ccftHBT8ocxtmhFhHp5IauTqBWev1jKtObxbJdbvAfkmqdgV+7CR0lXBDhIBADwb6aRZMF+myAvGZU6GlHrottkI8wiZpGLHjqvH/HnnbZ19x96X+PFOCKuYlEe+G/zGPhl52Q6tnmlrMwCA1woKrTqbrAjzCJdkXMO/Dyll/li/UKbI2g0qXeUcuADkpbiuW0eAl2nNW5yKCQB4ijCPcHG3ZJpiSKkfb+jnT1rV/c5xXb+aZVUI4LGRz05p2LiOvN7A2ygAgIUwj5CZOBWz0f05fFT1e3eo1Npre0jDX7Wq57PsByoAvklfPa5rPxoNa5u1lcXeAOCh7HXvplzr7Qnz8ENhoQpWbtLGQ2dUv3eDNXuf+vGUrgc47hjwRfrqcXWbuzYt26H6N1n0CgC+yLXufS4I8/BOwcrd+uvr9rZNw1f6sh6qAPggPXjBDvLaoJpD1MkDgM9SyeBlwen/M/8HZD8kkDAPLxVs/rtKzYbff9JI8O8JEE6DF9RtLXjdoBq2XwUA/7xQlGUNYEABDgkkzMNTznHHgO8GL6gnU5DPMiMDAAghZ0OP1M/xgBUEcf1qrpcKcEggYR6eGlfK3Hsb8FmyTz2fPD1H4cmBaAR5APCUM+n4+1iwMD94x97F7A9LjavMCPPwk9PZtewlgg/8lOzLcLIxB6IBgN8KVbLGXN93QwNZt9N2T/zeoKoAu5gR5hECScWOva2ez/qC1b0n3YN0pMiaaNbXUEDoEOQBIG+56/tSX51TbIack756zj7xe+3qQGumCPMIjdSPX+jakbd19tgFxa7GlXY7fDKpkasX1HPEPkgn6JMrEC5xXSfIA0Aei2q1tfvekH4+clzXB5N2yU0yrthnzpbE2qCagFsSL3n0nzOP3EZgsY189rZ9QE5gBCD4acpe8jmj78NHcV1/x52QCa507xltXOm2AmGWVOxYqz3jnlVu4zsz8wiFkteatWatvXd8NpG1O1STQ2cHwsTeR3g2cjtREAiFZNJ4G5W7XPbqBsKhUKsOHVVN0IyzbEPO2YaZeYRMUunBuO7EflJqbMjZsaZMkWVFiqxZrdUro1kPUQDCLD1lT/ncMUsJ70xZJ5Ib+jy8lowr9vUdDY/dmJpv1r6kqteiKinMPdwQ5gEAAABPUWYDAAAAeIowDwAAAHiKMA8AAAB4ijAPAAAAeIowDwAAAHiKMA8AAAB4ijAPAAAAeIowDwAAAHiKMA8AAAB4ijAPAAAAeIowDwAAAHiKMA8AAAB4ijAPAAAAeOr/AZCtMQhduYbzAAAAAElFTkSuQmCC;" vertex="1" parent="1">
                    <mxGeometry x="80" y="180" width="285" height="66.81" as="geometry"/>
                </mxCell>
            </root>
        </mxGraphModel>
    </diagram>
</mxfile>